<?xml version="1.0" encoding="UTF-8"?>
<svg version="1.1" xmlns="http://www.w3.org/2000/svg" width="500" height="500" viewBox="0 0 500 500">
<path d="M0 0 C44.22 0 88.44 0 134 0 C143 10 143 10 145 16 C145.99 16.33 146.98 16.66 148 17 C149.55078125 18.8359375 149.55078125 18.8359375 151.3125 21.375 C152.0034375 22.35210937 152.694375 23.32921875 153.40625 24.3359375 C154.00373047 25.18430176 154.00373047 25.18430176 154.61328125 26.04980469 C157.46866177 30.06543489 160.39467542 34.02965428 163.3125 38 C163.92327393 38.83708496 164.53404785 39.67416992 165.16333008 40.53662109 C165.74493896 41.32891113 166.32654785 42.12120117 166.92578125 42.9375 C167.70562378 44.00291016 167.70562378 44.00291016 168.5012207 45.08984375 C169.89956084 46.87199283 171.39828625 48.40418213 173 50 C174 51.66666667 175 53.33333333 176 55 C177.69078928 57.29729914 179.46926763 59.52203231 181.25 61.75 C182.23577711 62.99471245 183.22145421 64.23950412 184.20703125 65.484375 C184.68479004 66.08572266 185.16254883 66.68707031 185.65478516 67.30664062 C193.26791646 76.89006689 193.26791646 76.89006689 195.9375 80.9375 C198.48149515 84.71494735 201.32132303 88.20034207 204.1953125 91.73046875 C206 94 206 94 208 97 C212.56923843 91.35280743 216.81949921 85.49951372 221 79.5625 C221.51900879 78.82596191 222.03801758 78.08942383 222.57275391 77.33056641 C224.82314117 74.12822904 227.06308893 70.92047547 229.2578125 67.6796875 C229.87398437 66.77476562 230.49015625 65.86984375 231.125 64.9375 C231.64320313 64.16277344 232.16140625 63.38804687 232.6953125 62.58984375 C233.12585938 62.06519531 233.55640625 61.54054687 234 61 C234.66 61 235.32 61 236 61 C236.2578125 60.28457031 236.515625 59.56914062 236.78125 58.83203125 C238.07384765 55.82839889 239.6277709 53.36494628 241.5 50.6875 C242.1084375 49.80449219 242.716875 48.92148438 243.34375 48.01171875 C243.8903125 47.34785156 244.436875 46.68398437 245 46 C245.66 46 246.32 46 247 46 C247.07089844 45.4740625 247.14179688 44.948125 247.21484375 44.40625 C248.33266406 40.98049222 250.43365642 38.35808241 252.5625 35.5 C256.71913716 29.82817249 260.62686355 24.06521008 264.40625 18.1328125 C264.9321875 17.42898437 265.458125 16.72515625 266 16 C266.66 16 267.32 16 268 16 C268.66 14.35 269.32 12.7 270 11 C272.64 7.37 275.28 3.74 278 0 C322.55 0 367.1 0 413 0 C413 95.7 413 191.4 413 290 C412.01 290 411.02 290 410 290 C410 289.34 410 288.68 410 288 C409.34 288 408.68 288 408 288 C406.35527629 286.05459554 404.82539555 284.10682406 403.3125 282.0625 C402.40778094 280.86180669 401.50283212 279.66128647 400.59765625 278.4609375 C400.15437988 277.86893555 399.71110352 277.27693359 399.25439453 276.66699219 C397.61314232 274.48589641 395.93439553 272.33538691 394.25 270.1875 C391.64130941 266.84130576 389.08504123 263.46040685 386.5546875 260.0546875 C384.20472638 256.94895999 381.76216811 253.91663311 379.3203125 250.8828125 C378 249 378 249 378 247 C377.34 247 376.68 247 376 247 C374.62101957 245.30189246 373.32040522 243.53964541 372.0625 241.75 C371.02802734 240.28820312 371.02802734 240.28820312 369.97265625 238.796875 C369.32167969 237.87390625 368.67070312 236.9509375 368 236 C367.42121094 235.26265625 366.84242188 234.5253125 366.24609375 233.765625 C365 232 365 232 365 230 C364.34 230 363.68 230 363 230 C363 229.34 363 228.68 363 228 C362.34 228 361.68 228 361 228 C359.08984375 225.734375 359.08984375 225.734375 356.9375 222.75 C356.22464844 221.77546875 355.51179688 220.8009375 354.77734375 219.796875 C353.24584751 217.38687213 352.43003854 215.77871057 352 213 C351.34 213 350.68 213 350 213 C350 212.34 350 211.68 350 211 C349.34 211 348.68 211 348 211 C347.34 209.35 346.68 207.7 346 206 C345.34 206 344.68 206 344 206 C340 200.58823529 340 200.58823529 340 198 C339.01 197.67 338.02 197.34 337 197 C335.95558107 195.36080298 334.96199467 193.6888884 334 192 C332.67541301 190.30972948 331.3186646 188.64436294 329.9375 187 C325.57913628 181.7443261 321.40277599 176.37336499 317.26171875 170.9453125 C315.77996466 169.01570528 314.26244679 167.11292578 312.70703125 165.2421875 C311 163 311 163 311 161 C310.34 161 309.68 161 309 161 C307.7109375 159.46875 307.7109375 159.46875 306.375 157.5 C305.92898438 156.8503125 305.48296875 156.200625 305.0234375 155.53125 C304.68570312 155.0259375 304.34796875 154.520625 304 154 C299.69414235 159.54542273 295.76664945 165.28924994 291.9296875 171.16796875 C290.0705291 173.89649069 288.07257234 176.43199204 286 179 C284.90354076 180.55331726 283.82019673 182.11597325 282.75 183.6875 C280.23939055 187.31573559 277.60713018 190.77357561 274.8125 194.1875 C272.51272303 197.01116439 270.44395336 199.74638626 268.6875 202.9375 C267.24070482 205.56316532 266.10487912 206.98663736 264 209 C262.98827885 210.65957768 261.99075023 212.32781827 261 214 C259.66072113 216.11367378 258.30596192 218.21760222 256.9375 220.3125 C256.24527344 221.38113281 255.55304688 222.44976562 254.83984375 223.55078125 C254.23269531 224.35902344 253.62554687 225.16726563 253 226 C252.34 226 251.68 226 251 226 C250.731875 226.53625 250.46375 227.0725 250.1875 227.625 C248.79166667 230.41666667 247.39583333 233.20833333 246 236 C245.34 236 244.68 236 244 236 C243.34 237.65 242.68 239.3 242 241 C241.34 241 240.68 241 240 241 C239.938125 241.53625 239.87625 242.0725 239.8125 242.625 C238.85724147 245.41729416 237.26012166 247.16066843 235.33203125 249.35546875 C233.96752564 251.04009298 232.92543691 252.73096896 231.875 254.625 C230.38884391 257.30008097 229.01714278 259.70779229 227 262 C226.34 262 225.68 262 225 262 C224.88897949 262.58048096 224.77795898 263.16096191 224.66357422 263.7590332 C223.46777214 267.79739496 220.64434606 270.86868932 218.125 274.1875 C217.58230469 274.92419922 217.03960937 275.66089844 216.48046875 276.41992188 C215.95324219 277.12052734 215.42601562 277.82113281 214.8828125 278.54296875 C214.40215332 279.18258545 213.92149414 279.82220215 213.42626953 280.48120117 C212 282 212 282 209 283 C208.25234375 282.04738281 207.5046875 281.09476562 206.734375 280.11328125 C205.73959527 278.8463448 204.74480293 277.57941824 203.75 276.3125 C203.25886719 275.68666016 202.76773438 275.06082031 202.26171875 274.41601562 C199.52439814 270.93049404 196.77466577 267.45594531 194 264 C191 260.25 191 260.25 191 258 C190.34 258 189.68 258 189 258 C187.35493821 255.88577983 185.8231193 253.76993886 184.3125 251.5625 C183.40901732 250.26850697 182.50406666 248.97553767 181.59765625 247.68359375 C181.15437988 247.05050293 180.71110352 246.41741211 180.25439453 245.76513672 C178.18581255 242.8543061 175.98726638 240.0524035 173.765625 237.2578125 C169.90292281 232.31833935 166.18777483 227.26831324 162.4921875 222.203125 C161.89792969 221.38972656 161.30367187 220.57632813 160.69140625 219.73828125 C159.47031076 218.06551173 158.25159713 216.39100115 157.03515625 214.71484375 C156.44347656 213.90660156 155.85179687 213.09835937 155.2421875 212.265625 C154.7147998 211.54149414 154.18741211 210.81736328 153.64404297 210.07128906 C152.00928366 207.92045118 152.00928366 207.92045118 149.87548828 205.93652344 C147.52574214 203.51030808 146.87878037 201.22219469 146 198 C145.34 198 144.68 198 144 198 C144 197.34 144 196.68 144 196 C143.34 196 142.68 196 142 196 C141.02212454 194.61748642 140.05442612 193.22608829 139.15234375 191.79296875 C137.92528803 189.88375325 136.59986422 188.07403748 135.25 186.25 C133 183 133 183 133 181 C132.34 181 131.68 181 131 181 C130.01 178.525 130.01 178.525 129 176 C128.34 176 127.68 176 127 176 C123 170.58823529 123 170.58823529 123 168 C122.34 168 121.68 168 121 168 C118.70351351 165.4385343 118 164.52032428 118 161 C117.34 161 116.68 161 116 161 C114.62689293 159.70766393 113.28965176 158.37562854 112 157 C111.30132812 157.9384375 110.60265625 158.876875 109.8828125 159.84375 C108.96387374 161.0627504 108.04458477 162.28148685 107.125 163.5 C106.66480469 164.12003906 106.20460938 164.74007812 105.73046875 165.37890625 C104.53437826 166.95635892 103.27143274 168.48261798 102 170 C101.34 170 100.68 170 100 170 C99.65775391 170.78890625 99.65775391 170.78890625 99.30859375 171.59375 C97.55471119 174.81879973 95.32341952 177.62246607 93.0625 180.5 C92.1782145 181.63528356 91.29409589 182.77069713 90.41015625 183.90625 C89.21712891 185.43765625 89.21712891 185.43765625 88 187 C87.16275391 188.19109375 87.16275391 188.19109375 86.30859375 189.40625 C85.87675781 189.9321875 85.44492188 190.458125 85 191 C84.34 191 83.68 191 83 191 C82.690625 192.0209375 82.690625 192.0209375 82.375 193.0625 C80.88668042 196.24209184 79.14312601 198.33202708 76.828125 200.93359375 C70.39277954 208.20773424 64.52008987 215.88834087 58.84765625 223.76171875 C58.23792969 224.50035156 57.62820312 225.23898437 57 226 C56.34 226 55.68 226 55 226 C54.7525 226.53625 54.505 227.0725 54.25 227.625 C51.73416334 232.40508965 48.79696179 236.20303821 45 240 C43.91350319 241.33499 42.8513912 242.69013755 41.8125 244.0625 C39.16633956 247.51376883 36.45766605 250.89741388 33.6875 254.25 C31.15353213 257.31949716 28.66959872 260.41217836 26.2734375 263.58984375 C25.82137939 264.18829102 25.36932129 264.78673828 24.90356445 265.40332031 C24.02148571 266.57685598 23.1448458 267.75450297 22.27416992 268.93652344 C21.22886148 270.32688721 20.11961199 271.66874114 19 273 C18.34 273 17.68 273 17 273 C17 273.66 17 274.32 17 275 C16.34 275 15.68 275 15 275 C14.773125 275.70125 14.54625 276.4025 14.3125 277.125 C12.67791204 280.70552601 10.5841965 283.02817402 8 286 C7.34 286.99 6.68 287.98 6 289 C5.34 289 4.68 289 4 289 C3.71125 289.639375 3.4225 290.27875 3.125 290.9375 C2 293 2 293 0 294 C0 196.98 0 99.96 0 0 Z M22 13 C23.98944985 17.04402274 26.39128875 20.58289733 29 24.25 C29.45117188 24.8996875 29.90234375 25.549375 30.3671875 26.21875 C31.52604968 27.85075709 32.75781503 29.4304825 34 31 C34.66 31 35.32 31 36 31 C36.226875 31.70125 36.45375 32.4025 36.6875 33.125 C38.28143758 36.61648231 40.51982778 39.08579765 43 42 C43.33 42.680625 43.66 43.36125 44 44.0625 C45.14806336 46.28687277 46.69535278 47.66068254 48.5 49.36328125 C51.18550269 52.29355632 53.26779448 55.67503153 55.44921875 58.98828125 C55.96097656 59.65214844 56.47273438 60.31601563 57 61 C57.66 61 58.32 61 59 61 C59.268125 61.7425 59.53625 62.485 59.8125 63.25 C60.95276751 65.89061949 62.09380306 67.85552844 64 70 C64.66 70 65.32 70 66 70 C66.66 71.98 67.32 73.96 68 76 C68.66 76 69.32 76 70 76 C70.268125 76.556875 70.53625 77.11375 70.8125 77.6875 C72.10899496 80.21225334 73.42476323 82.63714484 75 85 C75.66 85 76.32 85 77 85 C77.23976562 85.71285156 77.47953125 86.42570312 77.7265625 87.16015625 C79.19399094 90.4326117 81.04849346 92.71293669 83.375 95.4375 C86.5213404 99.18793776 89.3579467 102.89013932 92 107 C93.32634969 108.67222967 94.66084226 110.33800959 96 112 C113.23623115 134.17787946 113.23623115 134.17787946 120.58984375 145.234375 C121.05519531 145.81703125 121.52054687 146.3996875 122 147 C122.66 147 123.32 147 124 147 C124.99 149.475 124.99 149.475 126 152 C126.66 152 127.32 152 128 152 C128.38671875 153.07314453 128.38671875 153.07314453 128.78125 154.16796875 C130.07384765 157.17160111 131.6277709 159.63505372 133.5 162.3125 C134.1084375 163.19550781 134.716875 164.07851563 135.34375 164.98828125 C135.8903125 165.65214844 136.436875 166.31601562 137 167 C137.66 167 138.32 167 139 167 C140.33333333 169.66666667 141.66666667 172.33333333 143 175 C143.66 175 144.32 175 145 175 C145.25523437 175.55558594 145.51046875 176.11117187 145.7734375 176.68359375 C147.1803308 179.34056103 148.83747417 181.64471107 150.625 184.0625 C152.85365528 187.08013179 155.07034052 190.09960809 157.234375 193.1640625 C157.94078125 194.16179687 158.6471875 195.15953125 159.375 196.1875 C160.02210938 197.10917969 160.66921875 198.03085937 161.3359375 198.98046875 C161.88507813 199.64691406 162.43421875 200.31335938 163 201 C163.66 201 164.32 201 165 201 C165.103125 201.5775 165.20625 202.155 165.3125 202.75 C166.10896465 205.35661158 167.19065277 206.9735311 169 209 C169.66 209 170.32 209 171 209 C171.20625 209.680625 171.4125 210.36125 171.625 211.0625 C173.15288326 214.32661424 175.03957892 216.5262953 177.46484375 219.15625 C179 221 179 221 180.4296875 223.3984375 C182.13194701 226.21859878 184.06462533 228.6076088 186.1875 231.125 C190.0169253 235.74265384 193.58831592 240.48100365 197.08203125 245.35546875 C199.4646836 248.64071445 201.94761828 251.83842228 204.45703125 255.02734375 C205.53555836 256.40622018 206.57183153 257.81872654 207.57421875 259.25390625 C208.04472656 259.83011719 208.51523438 260.40632812 209 261 C209.66 261 210.32 261 211 261 C212.59348861 259.05385473 212.59348861 259.05385473 214.125 256.625 C214.66382813 255.81289063 215.20265625 255.00078125 215.7578125 254.1640625 C217.1659413 252.12677974 217.1659413 252.12677974 217 250 C217.66 250 218.32 250 219 250 C220.63429751 247.9055032 222.14167234 245.82217909 223.625 243.625 C224.25535156 242.72007812 224.25535156 242.72007812 224.8984375 241.796875 C227.23360323 238.68286129 227.23360323 238.68286129 228 235 C228.66 235 229.32 235 230 235 C232.96235695 231.36676311 232.96235695 231.36676311 234 227 C234.66 227 235.32 227 236 227 C237.82505013 224.59439414 237.82505013 224.59439414 239.625 221.625 C240.25664062 220.62726563 240.88828125 219.62953125 241.5390625 218.6015625 C243.16321318 216.20664169 243.16321318 216.20664169 243 214 C243.66 214 244.32 214 245 214 C246.71745364 211.92484762 246.71745364 211.92484762 248.4375 209.3125 C249.33275391 208.00732422 249.33275391 208.00732422 250.24609375 206.67578125 C253.61077415 202.18024291 253.61077415 202.18024291 255 197 C255.66 197 256.32 197 257 197 C260.19153866 193.25908825 260.19153866 193.25908825 260.75 188.625 C260.5025 188.08875 260.255 187.5525 260 187 C259.34 187 258.68 187 258 187 C257.7525 186.46375 257.505 185.9275 257.25 185.375 C254.68971023 180.51044944 251.43262231 176.26924711 248 172 C246.3274594 169.85839753 244.6603854 167.71345381 243 165.5625 C242.57460938 165.01529297 242.14921875 164.46808594 241.7109375 163.90429688 C239.62052558 161.19509738 237.64533472 158.48080111 235.8125 155.58984375 C235.214375 154.73519531 234.61625 153.88054687 234 153 C233.34 153 232.68 153 232 153 C231.89558594 152.4121875 231.79117188 151.824375 231.68359375 151.21875 C230.89914495 148.67265332 229.8659823 147.44017655 228.0625 145.5 C225.86536102 143.12471462 224.34039585 140.95275608 223 138 C222.34 138 221.68 138 221 138 C220.731875 137.43796875 220.46375 136.8759375 220.1875 136.296875 C218.9196021 133.84449354 217.51027658 131.56072317 216 129.25 C215.484375 128.45078125 214.96875 127.6515625 214.4375 126.828125 C213.963125 126.22484375 213.48875 125.6215625 213 125 C212.34 125 211.68 125 211 125 C211 124.34 211 123.68 211 123 C210.34 123 209.68 123 209 123 C208.87625 122.401875 208.7525 121.80375 208.625 121.1875 C208.04524015 118.73768652 208.04524015 118.73768652 206 116 C205.34 116 204.68 116 204 116 C203.566875 114.8553125 203.566875 114.8553125 203.125 113.6875 C202.03730987 110.84970692 202.03730987 110.84970692 200 108 C199.34 108 198.68 108 198 108 C197.76796875 107.30648437 197.5359375 106.61296875 197.296875 105.8984375 C195.7371509 102.41254809 193.60553422 99.59583438 191.25 96.625 C190.80261475 96.05136719 190.35522949 95.47773438 189.89428711 94.88671875 C187.52036243 91.86044728 185.0948827 88.89597417 182.5625 86 C180 83 180 83 178.66015625 80.73046875 C176.62917074 77.39009494 174.28798049 74.38261783 171.875 71.3125 C167.12573386 65.25146771 167.12573386 65.25146771 166 63 C165.34 63 164.68 63 164 63 C163.773125 62.29875 163.54625 61.5975 163.3125 60.875 C161.71856242 57.38351769 159.48017222 54.91420235 157 52 C156.67 51.319375 156.34 50.63875 156 49.9375 C155.03582502 47.81103074 155.03582502 47.81103074 152.8515625 45.94921875 C149.16396482 42.33121089 146.3369247 38.08796595 143.375 33.875 C142.23953379 32.26642286 141.10160517 30.65958039 139.9609375 29.0546875 C139.46384277 28.34812012 138.96674805 27.64155273 138.45458984 26.91357422 C137.08237317 25.10836537 135.60309583 23.5964093 134 22 C133.525625 21.195625 133.05125 20.39125 132.5625 19.5625 C130.80729829 16.68396919 129.73366884 15.01611617 127 13 C123.63914949 12.40872728 120.31136018 12.49529595 116.90722656 12.54589844 C115.88251755 12.54531433 114.85780853 12.54473022 113.80204773 12.54412842 C110.4145624 12.54691544 107.02795664 12.57803776 103.640625 12.609375 C101.29222087 12.61683516 98.94381052 12.62252915 96.59539795 12.62652588 C90.41386737 12.64179976 84.23271263 12.68109725 78.05133057 12.7253418 C71.74390752 12.76625634 65.43642375 12.78452877 59.12890625 12.8046875 C46.75243902 12.84758935 34.37625076 12.91586233 22 13 Z M285 13 C284.34 14.65 283.68 16.3 283 18 C282.34 18 281.68 18 281 18 C279.5123694 19.88297827 279.5123694 19.88297827 278.0625 22.25 C276.5411549 24.63123581 275.04549961 26.94157556 273.30859375 29.171875 C271.80598011 30.89634664 271.80598011 30.89634664 272 33 C271.34 33 270.68 33 270 33 C269.45085937 34.00160156 268.90171875 35.00320312 268.3359375 36.03515625 C266.03868987 40.05281405 263.39336332 43.73458149 260.625 47.4375 C260.13749268 48.09637207 259.64998535 48.75524414 259.14770508 49.43408203 C256.68113673 52.76314727 254.19148764 56.07398712 251.6875 59.375 C249.10509377 62.79332963 246.73616342 66.33524281 244.39453125 69.921875 C243 72 243 72 241.32421875 74.140625 C239.80663183 75.89105995 239.80663183 75.89105995 240 78 C239.34 78 238.68 78 238 78 C236.17494987 80.40560586 236.17494987 80.40560586 234.375 83.375 C233.74335938 84.37273437 233.11171875 85.37046875 232.4609375 86.3984375 C230.83678682 88.79335831 230.83678682 88.79335831 231 91 C230.34 91 229.68 91 229 91 C227.35172402 93.00895906 227.35172402 93.00895906 225.6875 95.5625 C223.54001726 98.756655 221.3502981 101.81638807 218.9375 104.8125 C216.68578301 107.75369859 216.68578301 107.75369859 217.375 110.5625 C219.38502058 113.57753087 221.65597032 116.23524704 224 119 C224.33 119.99 224.66 120.98 225 122 C226.6459651 123.68711423 228.31237149 125.3545622 230 127 C230.33 127.66 230.66 128.32 231 129 C231.66 129 232.32 129 233 129 C233.08378906 129.54140625 233.16757812 130.0828125 233.25390625 130.640625 C234.25850719 133.81747823 235.97422933 136.06603503 237.9375 138.75 C238.64777344 139.73484375 239.35804688 140.7196875 240.08984375 141.734375 C241.03537109 142.85585938 241.03537109 142.85585938 242 144 C242.66 144 243.32 144 244 144 C245.33333333 146.66666667 246.66666667 149.33333333 248 152 C248.66 152 249.32 152 250 152 C250.25394531 152.55300781 250.50789063 153.10601562 250.76953125 153.67578125 C253.29955733 158.45471941 256.77170455 162.6761819 260 167 C260.65226562 167.87398437 261.30453125 168.74796875 261.9765625 169.6484375 C265.49574229 174.32385091 265.49574229 174.32385091 270 178 C270.33 177.01 270.66 176.02 271 175 C271.66 175 272.32 175 273 175 C274.42808918 173.11632409 275.76921391 171.1661573 277.0625 169.1875 C278.13177734 167.56908203 278.13177734 167.56908203 279.22265625 165.91796875 C281.09409667 163.09009899 281.09409667 163.09009899 282 160 C282.66 160 283.32 160 284 160 C287.13979204 154.57498456 287.13979204 154.57498456 290 149 C290.66 149 291.32 149 292 149 C292.474375 148.0925 292.94875 147.185 293.4375 146.25 C296.20372246 141.3512715 299.72599793 137.00383814 303.171875 132.57421875 C305.19300413 130.25444639 305.19300413 130.25444639 305 128 C305.66 128 306.32 128 307 128 C307.474375 127.0925 307.94875 126.185 308.4375 125.25 C311.20372246 120.3512715 314.72599793 116.00383814 318.171875 111.57421875 C320.19300413 109.25444639 320.19300413 109.25444639 320 107 C320.66 107 321.32 107 322 107 C322.556875 105.989375 323.11375 104.97875 323.6875 103.9375 C325.22723212 101.22227346 326.89781595 98.69929375 328.75 96.1875 C331.19222773 93.37794776 331.19222773 93.37794776 331 91 C331.66 91 332.32 91 333 91 C334.42808918 89.11632409 335.76921391 87.1661573 337.0625 85.1875 C337.77535156 84.10855469 338.48820312 83.02960938 339.22265625 81.91796875 C341.09409667 79.09009899 341.09409667 79.09009899 342 76 C342.66 76 343.32 76 344 76 C344.82371094 74.49759766 344.82371094 74.49759766 345.6640625 72.96484375 C347.96133168 68.94714827 350.60685347 65.26561822 353.375 61.5625 C353.85815674 60.90870361 354.34131348 60.25490723 354.83911133 59.58129883 C357.42262591 56.09105957 360.04384819 52.63244961 362.6875 49.1875 C365.19574254 46.38652538 365.19574254 46.38652538 365 44 C365.66 44 366.32 44 367 44 C367.598125 42.9275 368.19625 41.855 368.8125 40.75 C370.03558027 38.59546359 371.25021742 36.66935555 372.75 34.6875 C374.19840918 33.0821538 374.19840918 33.0821538 374 31 C374.66 31 375.32 31 376 31 C378.96235695 27.36676311 378.96235695 27.36676311 380 23 C380.66 23 381.32 23 382 23 C382.928125 21.3603125 382.928125 21.3603125 383.875 19.6875 C385.17899562 17.3837744 386.52774699 15.20837951 388 13 C354.01 13 320.02 13 285 13 Z M398 22 C392.65883215 28.06715183 388.18917315 34.93947082 383.55664062 41.55078125 C379.81140135 46.88505196 375.95127242 52.10906663 372.015625 57.3046875 C369.51401477 60.64986397 367.12740894 64.06596487 364.75 67.5 C362.84916694 70.2154758 360.8976505 72.8895675 358.9375 75.5625 C355.93624346 79.66673283 353.0868292 83.84287626 350.29296875 88.08984375 C348.65885551 90.50398688 346.82756838 92.72938474 345 95 C343.33459062 97.33426651 341.70000791 99.68905113 340.0625 102.04296875 C337.68179259 105.45621783 335.28440666 108.85696947 332.875 112.25 C332.46749512 112.82806396 332.05999023 113.40612793 331.64013672 114.00170898 C329.62006793 116.84113202 327.54861736 119.56679271 325.27734375 122.2109375 C322.91522966 125.10381822 321.93891767 127.41504161 321 131 C320.34 131 319.68 131 319 131 C317.40268298 132.87410321 317.40268298 132.87410321 315.875 135.25 C315.06675781 136.43335938 315.06675781 136.43335938 314.2421875 137.640625 C312.68942188 140.14550338 312.68942188 140.14550338 313 144 C313.66 144 314.32 144 315 144 C315.3403125 145.051875 315.3403125 145.051875 315.6875 146.125 C316.97470635 148.94459487 318.54436831 150.90911715 320.53979492 153.25146484 C323.24690037 156.4931116 325.7616977 159.88501588 328.3125 163.25 C332.55221427 168.82021846 336.83299753 174.34662984 341.2265625 179.796875 C349.33169162 189.86580192 349.33169162 189.86580192 352.3125 194.5625 C353.1478125 195.7690625 353.1478125 195.7690625 354 197 C354.66 197 355.32 197 356 197 C356.2475 197.54140625 356.495 198.0828125 356.75 198.640625 C358.27988604 201.5282849 360.09150997 204.09776018 362 206.75 C362.70125 207.73484375 363.4025 208.7196875 364.125 209.734375 C365.053125 210.85585938 365.053125 210.85585938 366 212 C366.66 212 367.32 212 368 212 C368.433125 213.1446875 368.433125 213.1446875 368.875 214.3125 C369.96269013 217.15029308 369.96269013 217.15029308 372 220 C372.66 220 373.32 220 374 220 C374.185625 220.66 374.37125 221.32 374.5625 222 C376.19115684 225.39893601 378.20494768 227.57896904 380.73046875 230.34375 C384.30659319 234.52923127 387.50977824 238.99379436 390.73583984 243.45239258 C391.22906738 244.12423584 391.72229492 244.7960791 392.23046875 245.48828125 C392.66770264 246.09196533 393.10493652 246.69564941 393.55541992 247.31762695 C395.24721432 249.41049342 395.24721432 249.41049342 399 252 C399 176.1 399 100.2 399 22 C398.67 22 398.34 22 398 22 Z M13 25 C13 101.56 13 178.12 13 257 C15.99077112 254.00922888 18.72182375 251.25927428 21.375 248.0390625 C21.96796875 247.31976563 22.5609375 246.60046875 23.171875 245.859375 C23.77515625 245.12203125 24.3784375 244.3846875 25 243.625 C25.90492187 242.53058594 25.90492187 242.53058594 26.828125 241.4140625 C29.59334624 238.04770621 32.28216592 234.66672368 34.79296875 231.10546875 C36.69891087 228.42365639 38.68817991 226.31182009 41 224 C41 223.34 41 222.68 41 222 C41.66 222 42.32 222 43 222 C44.41915651 220.2808104 45.75938566 218.4962319 47.0625 216.6875 C50.95972365 211.33092811 55.06222561 206.234298 59.34765625 201.1796875 C61.20136838 199.19023052 61.20136838 199.19023052 61 197 C61.66 197 62.32 197 63 197 C64.44906333 195.38199126 64.44906333 195.38199126 65.875 193.3125 C67.65548472 190.84687778 69.43568293 188.47259434 71.375 186.125 C73.20248337 184.18106686 73.20248337 184.18106686 73 182 C73.66 182 74.32 182 75 182 C76.81628776 180.05624046 76.81628776 180.05624046 78.625 177.625 C79.25664063 176.81289063 79.88828125 176.00078125 80.5390625 175.1640625 C82.18650808 173.15890121 82.18650808 173.15890121 82 171 C82.66 171 83.32 171 84 171 C85.81628776 169.05624046 85.81628776 169.05624046 87.625 166.625 C88.25664062 165.81289063 88.88828125 165.00078125 89.5390625 164.1640625 C91.18650808 162.15890121 91.18650808 162.15890121 91 160 C91.66 160 92.32 160 93 160 C95.96235695 156.36676311 95.96235695 156.36676311 97 152 C97.8971875 151.690625 97.8971875 151.690625 98.8125 151.375 C101.81018767 149.49073918 102.61361776 147.18867916 104 144 C103.63648438 143.5153125 103.27296875 143.030625 102.8984375 142.53125 C102.39570313 141.8609375 101.89296875 141.190625 101.375 140.5 C100.82070312 139.76136719 100.26640625 139.02273437 99.6953125 138.26171875 C98.66756524 136.89059972 97.6411437 135.51848377 96.6171875 134.14453125 C93.95283262 130.57429571 91.25362808 127.03473576 88.52197266 123.515625 C84.52344474 118.35821471 80.63893929 113.14383817 76.875 107.8125 C71.95209651 100.84661552 66.71483535 94.18540912 61.1875 87.6875 C59 85 59 85 57.6484375 82.6796875 C55.17910298 78.66555603 52.09435121 75.21515143 49.05859375 71.62109375 C47.34463079 69.43879936 46.10017748 67.52743476 45 65 C44.34 65 43.68 65 43 65 C42.6596875 63.948125 42.6596875 63.948125 42.3125 62.875 C40.99920745 59.99826393 39.38193859 57.92215002 37.30078125 55.55859375 C35.98527589 53.9823576 34.90377013 52.36204047 33.8125 50.625 C32.9153125 49.325625 32.9153125 49.325625 32 48 C31.34 48 30.68 48 30 48 C29.74734375 47.27425781 29.4946875 46.54851562 29.234375 45.80078125 C27.91023671 42.79632823 26.34833488 40.70468855 24.25 38.1875 C21.08240025 34.33906824 18.05505465 30.43285464 15.12890625 26.3984375 C14.75636719 25.93695313 14.38382813 25.47546875 14 25 C13.67 25 13.34 25 13 25 Z " fill="#232323" transform="translate(43,115)"/>
<path d="M0 0 C0 3.13751221 -0.35179805 4.39757586 -2 7 C-2.99 7.33 -3.98 7.66 -5 8 C-3.8141763 4.62496331 -2.72426311 2.35277269 0 0 Z " fill="#A0A0A0" transform="translate(332,266)"/>
<path d="M0 0 C0 3.59857954 -0.95830515 5.09451118 -3 8 C-3.66 8 -4.32 8 -5 8 C-3.8141763 4.62496331 -2.72426311 2.35277269 0 0 Z " fill="#999999" transform="translate(287,163)"/>
<path d="M0 0 C0 3.13751221 -0.35179805 4.39757586 -2 7 C-2.99 7.33 -3.98 7.66 -5 8 C-3.8141763 4.62496331 -2.72426311 2.35277269 0 0 Z " fill="#9E9E9E" transform="translate(317,121)"/>
</svg>
